<svg width="28" height="29" viewBox="0 0 28 29" fill="none" xmlns="http://www.w3.org/2000/svg">
<rect width="28" height="29" rx="14" fill="#1A1B21"/>
<mask id="mask0_5269_3500" style="mask-type:alpha" maskUnits="userSpaceOnUse" x="4" y="4" width="20" height="20">
<rect x="4" y="4" width="20" height="20" fill="#D9D9D9"/>
</mask>
<g mask="url(#mask0_5269_3500)">
<path d="M11.4679 22.3829C10.829 22.3829 10.2628 22.2029 9.76917 21.8429C9.27569 21.4829 8.9141 21.0059 8.68437 20.4118C8.48882 20.6981 8.2316 20.9184 7.91271 21.0729C7.59382 21.2272 7.26181 21.3043 6.91667 21.3043C6.2725 21.3043 5.72951 21.0813 5.28771 20.6354C4.8459 20.1893 4.625 19.6484 4.625 19.0127C4.625 18.4582 4.81146 17.9561 5.18437 17.5064C5.55715 17.0565 6.02882 16.8129 6.59938 16.7756C6.36215 16.5085 6.17681 16.2067 6.04333 15.8702C5.90972 15.5336 5.84292 15.1811 5.84292 14.8124C5.84292 14.5122 5.89611 14.2186 6.0025 13.9318C6.10875 13.645 6.26285 13.3852 6.46479 13.1522C6.55993 13.0027 6.6884 12.9057 6.85021 12.8614C7.01201 12.817 7.16771 12.8423 7.31729 12.9374C7.46687 13.0326 7.56465 13.1611 7.61063 13.3229C7.6566 13.4847 7.63201 13.6404 7.53688 13.7899C7.3959 13.9384 7.29014 14.1016 7.21958 14.2795C7.14903 14.4574 7.11375 14.642 7.11375 14.8333C7.11375 15.6058 7.40139 16.1082 7.97667 16.3406C8.55208 16.5729 9.14424 16.7457 9.75312 16.8589C9.83757 16.8814 9.91375 16.9137 9.98167 16.9558C10.0494 16.998 10.1058 17.0544 10.1506 17.1249C10.1955 17.1955 10.2188 17.2695 10.2204 17.3468C10.2219 17.4243 10.2072 17.5053 10.1762 17.5897C10.0321 17.9807 9.91965 18.3148 9.83896 18.592C9.75826 18.8693 9.71792 19.1286 9.71792 19.3702C9.71792 19.8403 9.88729 20.2503 10.226 20.6002C10.5647 20.95 10.976 21.125 11.46 21.125C11.9525 21.125 12.3692 20.9468 12.71 20.5906C13.0508 20.2342 13.3356 19.7945 13.5642 19.2716C13.7928 18.7486 13.9757 18.1943 14.1129 17.6089C14.2503 17.0235 14.3633 16.5016 14.4519 16.0433C14.4883 15.8552 14.5797 15.7086 14.726 15.6033C14.8724 15.4981 15.03 15.4722 15.1987 15.5256C15.3814 15.579 15.5157 15.6872 15.6017 15.8502C15.6878 16.0131 15.7084 16.1886 15.6635 16.3766C15.5438 16.978 15.3934 17.6292 15.2123 18.3302C15.0312 19.031 14.7855 19.6816 14.4752 20.282C14.1648 20.8825 13.7681 21.3827 13.2852 21.7829C12.8023 22.1829 12.1965 22.3829 11.4679 22.3829ZM16.5208 22.391C16.3349 22.3856 16.1808 22.3231 16.0585 22.2035C15.9362 22.0838 15.8776 21.9352 15.8829 21.7579C15.8883 21.5806 15.9522 21.4309 16.0746 21.3085C16.1968 21.1861 16.3466 21.1277 16.524 21.1331C17.0165 21.1331 17.4334 20.9581 17.7748 20.6081C18.1162 20.2582 18.2869 19.8413 18.2869 19.3572C18.2869 19.1104 18.2431 18.8434 18.1554 18.556C18.0678 18.2686 17.9476 17.9182 17.7948 17.5047C17.7724 17.4342 17.7612 17.3658 17.7612 17.2995C17.7612 17.2334 17.7837 17.1693 17.8285 17.1072C17.8734 17.0453 17.9212 16.9967 17.9719 16.9614C18.0227 16.9263 18.0876 16.8974 18.1667 16.8749C18.7896 16.7618 19.4007 16.5884 20 16.3549C20.5993 16.1215 20.899 15.61 20.899 14.8204C20.899 14.2061 20.6781 13.7552 20.2365 13.4679C19.7947 13.1805 19.304 13.0368 18.7644 13.0368C18.2676 13.0368 17.6931 13.1188 17.0408 13.2829C16.3886 13.4468 15.6448 13.6634 14.8094 13.9327C14.6213 13.986 14.4415 13.9809 14.27 13.9174C14.0986 13.8538 13.9862 13.7307 13.9327 13.5481C13.8792 13.3653 13.9073 13.1952 14.0169 13.0377C14.1263 12.88 14.2724 12.7745 14.4552 12.7212C15.3141 12.4487 16.091 12.2222 16.786 12.0416C17.481 11.8611 18.1288 11.7708 18.7292 11.7708C19.6288 11.7708 20.4236 12.0368 21.1138 12.5689C21.8039 13.101 22.149 13.8515 22.149 14.8204C22.149 15.189 22.0835 15.5376 21.9527 15.8662C21.8219 16.1947 21.6378 16.4978 21.4006 16.7756C21.9712 16.8184 22.4428 17.062 22.8156 17.5064C23.1885 17.9509 23.375 18.4529 23.375 19.0127C23.375 19.6431 23.1541 20.1827 22.7123 20.6314C22.2705 21.08 21.7275 21.3043 21.0833 21.3043C20.7382 21.3043 20.4062 21.2272 20.0873 21.0729C19.7684 20.9184 19.5112 20.6981 19.3156 20.4118C19.0859 20.9972 18.7238 21.4713 18.2292 21.8341C17.7344 22.1968 17.165 22.3824 16.5208 22.391ZM11.8398 16.1683C10.797 15.2227 9.95889 14.3661 9.32542 13.5985C8.69181 12.8309 8.375 11.9994 8.375 11.1041C8.375 10.2601 8.66403 9.54912 9.24208 8.9712C9.82 8.39314 10.531 8.10412 11.375 8.10412C11.4786 8.10412 11.5713 8.1103 11.6531 8.12266C11.7348 8.13488 11.8167 8.14898 11.899 8.16495C11.8381 8.03148 11.7912 7.89662 11.7581 7.76037C11.7249 7.62411 11.7083 7.4796 11.7083 7.32682C11.7083 6.69127 11.9314 6.15043 12.3775 5.70432C12.8235 5.25821 13.3643 5.03516 14 5.03516C14.6357 5.03516 15.1765 5.25821 15.6225 5.70432C16.0686 6.15043 16.2917 6.69127 16.2917 7.32682C16.2917 7.4796 16.2751 7.62196 16.2419 7.75391C16.2088 7.88585 16.1619 8.01863 16.101 8.15224C16.1576 8.13627 16.2395 8.12425 16.3469 8.1162C16.4542 8.10814 16.5469 8.10412 16.625 8.10412C17.0396 8.10412 17.4247 8.18641 17.7804 8.35099C18.1363 8.51543 18.445 8.73925 18.7067 9.02245C18.8424 9.13467 18.9148 9.27384 18.924 9.43995C18.933 9.60606 18.8814 9.75696 18.7692 9.89266C18.6571 10.0284 18.518 10.1007 18.3519 10.1097C18.1856 10.1188 18.0347 10.0672 17.8992 9.95516C17.7442 9.76391 17.5596 9.61592 17.3454 9.5112C17.1311 9.40648 16.891 9.35412 16.625 9.35412C16.1539 9.35412 15.7749 9.48043 15.4879 9.73307C15.2011 9.98571 14.836 10.3685 14.3927 10.8814C14.3392 10.9434 14.2788 10.9898 14.2115 11.0208C14.1442 11.0518 14.0711 11.0672 13.9921 11.0672C13.9129 11.0672 13.8389 11.0518 13.77 11.0208C13.7011 10.9898 13.6399 10.9434 13.5865 10.8814C13.1347 10.3493 12.7682 9.96175 12.4871 9.7187C12.2061 9.47564 11.8354 9.35412 11.375 9.35412C10.8718 9.35412 10.4543 9.51995 10.1225 9.85161C9.79083 10.1834 9.625 10.6009 9.625 11.1041C9.625 11.7034 9.90062 12.3311 10.4519 12.9872C11.0031 13.6432 11.7601 14.4108 12.7227 15.29C12.8744 15.4193 12.9676 15.5774 13.0023 15.7643C13.037 15.9513 12.9898 16.1094 12.8606 16.2387C12.7227 16.3765 12.556 16.4336 12.3606 16.4102C12.1651 16.3867 11.9915 16.3061 11.8398 16.1683ZM6.91667 20.0545C7.20625 20.0545 7.45229 19.9533 7.65479 19.7508C7.85715 19.5483 7.95833 19.3022 7.95833 19.0127C7.95833 18.7232 7.85715 18.4772 7.65479 18.2747C7.45229 18.0722 7.20625 17.971 6.91667 17.971C6.62722 17.971 6.38125 18.0722 6.17875 18.2747C5.97625 18.4772 5.875 18.7232 5.875 19.0127C5.875 19.3022 5.97625 19.5483 6.17875 19.7508C6.38125 19.9533 6.62722 20.0545 6.91667 20.0545ZM14.7379 8.06495C14.9404 7.86245 15.0417 7.61641 15.0417 7.32682C15.0417 7.03738 14.9404 6.79141 14.7379 6.58891C14.5356 6.38641 14.2896 6.28516 14 6.28516C13.7104 6.28516 13.4644 6.38641 13.2621 6.58891C13.0596 6.79141 12.9583 7.03738 12.9583 7.32682C12.9583 7.61641 13.0596 7.86245 13.2621 8.06495C13.4644 8.26731 13.7104 8.36849 14 8.36849C14.2896 8.36849 14.5356 8.26731 14.7379 8.06495ZM21.8317 19.7508C22.0272 19.5483 22.125 19.3022 22.125 19.0127C22.125 18.7232 22.0238 18.4738 21.8212 18.2643C21.6187 18.0549 21.3728 17.9502 21.0833 17.9502C20.7937 17.9502 20.5477 18.0514 20.3452 18.2539C20.1428 18.4564 20.0417 18.7024 20.0417 18.9918C20.0417 19.2814 20.1463 19.5309 20.3556 19.7404C20.5651 19.9498 20.8146 20.0545 21.1042 20.0545C21.3936 20.0545 21.6361 19.9533 21.8317 19.7508Z" fill="white"/>
</g>
</svg>
