<svg class="cliq-logo" width="44" height="24" viewBox="0 0 44 24" fill="none" xmlns="http://www.w3.org/2000/svg">
<path d="M8.28786 18.3431C6.57882 18.3431 5.10208 17.9698 3.85763 17.2231C2.62978 16.4598 1.67571 15.4062 0.995412 14.0622C0.331708 12.7016 -0.000143935 11.1253 -0.000143935 9.33332C-0.000143935 7.55791 0.331708 5.98991 0.995412 4.62932C1.67571 3.26873 2.62978 2.2151 3.85763 1.46843C5.10208 0.705172 6.57882 0.323543 8.28786 0.323543C10.3287 0.323543 11.9797 0.813024 13.2407 1.79199C14.5184 2.77095 15.3314 4.14814 15.6799 5.92354H12.9421C12.6932 4.8948 12.1788 4.07347 11.399 3.45954C10.6357 2.84562 9.59867 2.53865 8.28786 2.53865C7.10978 2.53865 6.08934 2.81243 5.22652 3.35999C4.36371 3.90754 3.7 4.68739 3.23541 5.69954C2.77082 6.71169 2.53852 7.92295 2.53852 9.33332C2.53852 10.7437 2.77082 11.9632 3.23541 12.992C3.7 14.0041 4.36371 14.784 5.22652 15.3315C6.08934 15.8625 7.10978 16.128 8.28786 16.128C9.59867 16.128 10.6357 15.8376 11.399 15.2569C12.1788 14.6595 12.6932 13.8548 12.9421 12.8427H15.6799C15.3314 14.5683 14.5184 15.9206 13.2407 16.8995C11.9797 17.8619 10.3287 18.3431 8.28786 18.3431ZM18.5329 18.0444V0.124431H21.0218V18.0444H18.5329ZM24.6134 18.0444V5.50043H27.1023V18.0444H24.6134ZM25.8827 3.13599C25.4016 3.13599 25.0033 2.98665 24.6881 2.68799C24.3894 2.38932 24.2401 2.00769 24.2401 1.5431C24.2401 1.0951 24.3894 0.730061 24.6881 0.447987C25.0033 0.14932 25.4016 -1.31342e-05 25.8827 -1.31342e-05C26.3473 -1.31342e-05 26.7373 0.14932 27.0525 0.447987C27.3678 0.730061 27.5254 1.0951 27.5254 1.5431C27.5254 2.00769 27.3678 2.38932 27.0525 2.68799C26.7373 2.98665 26.3473 3.13599 25.8827 3.13599ZM40.5921 23.52V16.1031C40.1939 16.7336 39.6297 17.2646 38.8996 17.696C38.1862 18.1274 37.3067 18.3431 36.2614 18.3431C35.0667 18.3431 34.0048 18.061 33.0756 17.4969C32.163 16.9161 31.4496 16.1363 30.9352 15.1573C30.4374 14.1618 30.1885 13.0335 30.1885 11.7724C30.1885 10.5114 30.4457 9.3914 30.9601 8.41243C31.4745 7.41688 32.1879 6.63702 33.1005 6.07288C34.0131 5.49214 35.0667 5.20176 36.2614 5.20176C36.9417 5.20176 37.5556 5.30132 38.1032 5.50043C38.6673 5.68295 39.1568 5.94014 39.5716 6.27199C39.9865 6.60384 40.3266 6.99377 40.5921 7.44177L40.841 5.50043H43.081V23.52H40.5921ZM36.6347 16.1778C37.4146 16.1778 38.1032 15.9952 38.7005 15.6302C39.2979 15.2652 39.7542 14.7508 40.0694 14.0871C40.4013 13.4234 40.5672 12.6518 40.5672 11.7724C40.5672 10.893 40.4013 10.1298 40.0694 9.48265C39.7542 8.81895 39.2979 8.30458 38.7005 7.93954C38.1032 7.55791 37.4146 7.3671 36.6347 7.3671C35.8881 7.3671 35.2161 7.55791 34.6187 7.93954C34.0214 8.30458 33.5568 8.81895 33.225 9.48265C32.8931 10.1298 32.7272 10.893 32.7272 11.7724C32.7272 12.6518 32.8931 13.4234 33.225 14.0871C33.5568 14.7508 34.0214 15.2652 34.6187 15.6302C35.2161 15.9952 35.8881 16.1778 36.6347 16.1778Z" fill="currentColor"/>
</svg>
